<?xml version="1.0" encoding="UTF-8"?>
<svg xmlns="http://www.w3.org/2000/svg" id="Layer_1" data-name="Layer 1" viewBox="0 0 24 24">
  <path d="m3,4.5c-.024-1.627,1.023-3.326,3.011-3.942,3.371-1.493,8.988.206,8.988,4.442,0,3-2.309,4.798-4.549,5,1.517-.89,2.549-2.38,2.549-4,0-2-2.047-2.961-3.5-2.992-1.212-.025-3.5-.008-3.5,1.992,0,.842.906,1.5,2,1.5,1,0,2.068-.398,2.451-1.5.143.589-.451,3.027-3.451,3.027s-3.976-1.991-4-3.527Zm20.235,8.515l-9.787,10.985H3c-1.654,0-3-1.346-3-3v-7c0-1.654,1.346-3,3-3h9.857c1.139,0,2.139.609,2.689,1.519l3.217-3.534c.54-.595,1.281-.944,2.085-.981.812-.039,1.574.24,2.169.782,1.214,1.107,1.312,3.005.218,4.23Zm-1.565-2.752c-.199-.181-.457-.267-.728-.262-.27.013-.519.129-.699.329l-4.427,4.864c-.385,1.071-1.339,1.891-2.514,2.059l-5.161.737-.283-1.979,5.161-.737c.559-.08.98-.566.98-1.131,0-.63-.513-1.142-1.143-1.142H3c-.552,0-1,.449-1,1v7c0,.551.448,1,1,1h9.552l9.19-10.316c.368-.412.335-1.049-.072-1.421Z"/>
</svg>
