<?xml version="1.0" encoding="UTF-8"?>
<svg xmlns="http://www.w3.org/2000/svg" id="Layer_1" data-name="Layer 1" viewBox="0 0 24 24" width="512" height="512"><path d="M23.957,22.543l-6.219-6.219c1.412-1.725,2.262-3.927,2.262-6.324C20,4.486,15.514,0,10,0S0,4.486,0,10s4.486,10,10,10c2.397,0,4.599-.85,6.324-2.262l6.219,6.219,1.414-1.414Zm-13.957-4.543c-4.411,0-8-3.589-8-8S5.589,2,10,2s8,3.589,8,8-3.589,8-8,8Zm-2-10.021c0,.379,.271,.698,.644,.761l3.041,.507c1.341,.223,2.315,1.372,2.315,2.732,0,1.654-1.346,3-3,3v1h-2v-1c-1.654,0-3-1.346-3-3h2c0,.552,.449,1,1,1h2c.551,0,1-.448,1-1,0-.378-.292-.697-.665-.76l-3.021-.507c-1.341-.224-2.315-1.374-2.315-2.733,0-1.654,1.346-3,3-3v-1h2v1c1.654,0,3,1.346,3,3h-2c0-.552-.449-1-1-1h-2c-.551,0-1,.448-1,1Z"/></svg>
